<svg width="608" height="307" viewBox="0 0 608 307" fill="none"
    xmlns="http://www.w3.org/2000/svg">
    <path d="M143.656 125.703C143.656 140.434 155.712 152.421 170.527 152.421H304.306C395.089 152.421 458.71 92.4855 463.213 9.87617C463.504 4.53256 467.716 0.34433 473.09 0.34433H597.137C602.656 0.34433 607.304 4.96584 607.159 10.4539C602.656 191.992 475.85 306.085 304.451 306.085H25.4193C11.3298 306.085 0 294.821 0 280.812V10.165C0 4.67699 4.50286 0.34433 9.87723 0.34433H133.778C139.298 0.34433 143.656 4.82141 143.656 10.165C143.656 48.7257 143.656 87.1419 143.656 125.703Z" fill="black"/>
</svg>
