<svg width="608" height="306" viewBox="0 0 608 306" fill="none"
    xmlns="http://www.w3.org/2000/svg">
    <path d="M464.199 180.383C464.199 165.652 452.143 153.665 437.327 153.665H303.549C212.766 153.665 149.145 213.6 144.642 296.209C144.351 301.553 140.139 305.741 134.765 305.741H10.7182C5.19856 305.741 0.550444 301.12 0.695698 295.632C5.34381 114.093 132.005 7.62939e-06 303.549 7.62939e-06H582.581C596.67 7.62939e-06 608 11.2649 608 25.2738V295.92C608 301.408 603.497 305.741 598.123 305.741H474.222C468.702 305.741 464.345 301.264 464.345 295.92C464.345 257.36 464.345 218.944 464.345 180.383H464.199Z" fill="black"/>
</svg>
